<?xml version="1.0" encoding="utf-8"?>
<!-- Generator: Adobe Illustrator 17.0.1, SVG Export Plug-In . SVG Version: 6.00 Build 0)  -->
<!DOCTYPE svg PUBLIC "-//W3C//DTD SVG 1.1//EN" "http://www.w3.org/Graphics/SVG/1.1/DTD/svg11.dtd">
<svg version="1.1" id="Layer_1" xmlns="http://www.w3.org/2000/svg" xmlns:xlink="http://www.w3.org/1999/xlink" x="0px" y="0px"
	 width="88.375px" height="13.625px" viewBox="0 0 88.375 13.625" enable-background="new 0 0 88.375 13.625" xml:space="preserve">
<g>
	<path fill="#555559" d="M6.949,1.96H2.376v2.461h4.211c0.31,0,0.541,0.069,0.694,0.208C7.434,4.769,7.51,4.952,7.51,5.18
		c0,0.228-0.075,0.414-0.226,0.557c-0.15,0.144-0.383,0.216-0.697,0.216H2.376v2.851h4.73c0.319,0,0.56,0.074,0.721,0.223
		C7.989,9.173,8.07,9.37,8.07,9.616c0,0.237-0.081,0.43-0.243,0.577c-0.162,0.148-0.402,0.223-0.721,0.223H1.59
		c-0.442,0-0.76-0.098-0.954-0.294s-0.291-0.513-0.291-0.95V1.639c0-0.292,0.044-0.529,0.13-0.715
		C0.562,0.74,0.698,0.605,0.882,0.521c0.185-0.085,0.42-0.127,0.707-0.127h5.359c0.324,0,0.564,0.072,0.721,0.215
		c0.157,0.145,0.236,0.332,0.236,0.565c0,0.237-0.079,0.428-0.236,0.57C7.513,1.889,7.273,1.96,6.949,1.96z"/>
</g>
<g>
	<path fill="#555559" d="M11.249,4.031v0.226c0.328-0.433,0.687-0.751,1.077-0.954c0.39-0.202,0.837-0.304,1.343-0.304
		c0.492,0,0.932,0.107,1.319,0.321s0.677,0.518,0.868,0.909c0.123,0.228,0.203,0.474,0.239,0.738
		c0.037,0.265,0.055,0.602,0.055,1.012v3.473c0,0.374-0.086,0.656-0.256,0.848c-0.171,0.191-0.393,0.287-0.667,0.287
		c-0.278,0-0.503-0.098-0.677-0.294c-0.173-0.196-0.26-0.477-0.26-0.841v-3.11c0-0.615-0.085-1.086-0.256-1.412
		c-0.171-0.325-0.512-0.488-1.022-0.488c-0.333,0-0.636,0.1-0.909,0.297c-0.273,0.199-0.474,0.471-0.601,0.817
		c-0.091,0.278-0.137,0.798-0.137,1.559v2.338c0,0.378-0.088,0.662-0.263,0.851s-0.402,0.284-0.68,0.284
		c-0.269,0-0.49-0.098-0.663-0.294s-0.26-0.477-0.26-0.841V4.059c0-0.355,0.078-0.621,0.232-0.797
		c0.155-0.175,0.367-0.263,0.636-0.263c0.164,0,0.312,0.039,0.444,0.116s0.238,0.193,0.318,0.349
		C11.209,3.619,11.249,3.808,11.249,4.031z"/>
	<path fill="#555559" d="M24.873,4.366v5.421c0,0.62-0.066,1.153-0.197,1.6c-0.133,0.446-0.344,0.815-0.637,1.107
		c-0.291,0.292-0.672,0.508-1.145,0.649c-0.471,0.142-1.059,0.212-1.76,0.212c-0.643,0-1.217-0.09-1.723-0.269
		c-0.506-0.181-0.896-0.413-1.169-0.697c-0.273-0.285-0.41-0.578-0.41-0.879c0-0.227,0.078-0.414,0.233-0.557
		c0.155-0.145,0.342-0.216,0.56-0.216c0.273,0,0.513,0.121,0.718,0.362c0.1,0.123,0.204,0.247,0.311,0.373
		c0.107,0.125,0.226,0.232,0.355,0.32c0.13,0.09,0.286,0.155,0.469,0.199c0.182,0.043,0.392,0.064,0.629,0.064
		c0.483,0,0.858-0.067,1.125-0.201c0.266-0.135,0.453-0.323,0.561-0.564c0.105-0.241,0.168-0.5,0.188-0.775
		c0.018-0.276,0.031-0.72,0.041-1.33c-0.287,0.401-0.619,0.706-0.994,0.916c-0.377,0.21-0.824,0.314-1.344,0.314
		c-0.625,0-1.17-0.159-1.638-0.479c-0.467-0.319-0.826-0.766-1.077-1.34s-0.376-1.237-0.376-1.989c0-0.56,0.076-1.066,0.229-1.517
		c0.153-0.451,0.37-0.832,0.653-1.142s0.608-0.543,0.978-0.701c0.369-0.156,0.775-0.235,1.217-0.235
		c0.527,0,0.986,0.102,1.373,0.304c0.389,0.203,0.748,0.521,1.08,0.954V4.018c0-0.323,0.08-0.574,0.24-0.752
		c0.158-0.178,0.363-0.267,0.615-0.267c0.359,0,0.6,0.117,0.717,0.352C24.814,3.586,24.873,3.924,24.873,4.366z M19.466,6.732
		c0,0.757,0.165,1.328,0.496,1.716s0.758,0.581,1.282,0.581c0.309,0,0.602-0.083,0.879-0.249c0.275-0.167,0.5-0.418,0.672-0.752
		c0.174-0.336,0.26-0.742,0.26-1.221c0-0.761-0.166-1.354-0.502-1.777c-0.334-0.424-0.775-0.636-1.322-0.636
		c-0.533,0-0.961,0.203-1.282,0.608C19.627,5.407,19.466,5.984,19.466,6.732z"/>
	<path fill="#555559" d="M31.127,9.534c-0.451,0.351-0.888,0.614-1.31,0.79c-0.421,0.175-0.894,0.263-1.418,0.263
		c-0.478,0-0.898-0.095-1.262-0.284c-0.361-0.189-0.641-0.445-0.837-0.769c-0.196-0.323-0.294-0.675-0.294-1.053
		c0-0.511,0.162-0.945,0.485-1.306c0.323-0.36,0.768-0.602,1.333-0.725c0.118-0.027,0.412-0.089,0.882-0.185
		c0.47-0.096,0.872-0.184,1.206-0.263c0.336-0.08,0.699-0.177,1.091-0.291c-0.023-0.492-0.122-0.854-0.298-1.084
		c-0.175-0.229-0.538-0.345-1.09-0.345c-0.474,0-0.83,0.066-1.07,0.198c-0.238,0.132-0.443,0.33-0.615,0.595
		c-0.169,0.267-0.29,0.441-0.36,0.525c-0.071,0.085-0.223,0.127-0.455,0.127c-0.21,0-0.391-0.067-0.543-0.201
		c-0.153-0.135-0.229-0.307-0.229-0.517c0-0.328,0.116-0.647,0.349-0.957c0.232-0.31,0.595-0.565,1.087-0.766
		c0.492-0.2,1.106-0.301,1.839-0.301c0.82,0,1.465,0.097,1.935,0.29c0.47,0.194,0.801,0.501,0.995,0.92
		c0.193,0.419,0.29,0.976,0.29,1.668c0,0.438-0.001,0.809-0.003,1.114c-0.003,0.306-0.006,0.644-0.011,1.018
		c0,0.351,0.058,0.717,0.175,1.098c0.115,0.38,0.174,0.625,0.174,0.734c0,0.191-0.09,0.365-0.27,0.523
		c-0.181,0.156-0.385,0.235-0.612,0.235c-0.192,0-0.381-0.09-0.567-0.271C31.536,10.137,31.337,9.876,31.127,9.534z M31.004,6.834
		c-0.273,0.101-0.671,0.206-1.192,0.318c-0.522,0.111-0.884,0.193-1.084,0.246c-0.2,0.052-0.392,0.154-0.574,0.307
		c-0.183,0.153-0.273,0.366-0.273,0.64c0,0.282,0.107,0.522,0.321,0.722c0.214,0.197,0.494,0.297,0.841,0.297
		c0.369,0,0.71-0.081,1.022-0.242c0.312-0.162,0.542-0.371,0.688-0.626c0.169-0.282,0.253-0.747,0.253-1.395V6.834H31.004z"/>
	<path fill="#555559" d="M41.411,4.366v5.421c0,0.62-0.066,1.153-0.198,1.6c-0.132,0.446-0.344,0.815-0.636,1.107
		c-0.292,0.292-0.673,0.508-1.145,0.649c-0.471,0.142-1.058,0.212-1.76,0.212c-0.643,0-1.217-0.09-1.723-0.269
		c-0.506-0.181-0.896-0.413-1.169-0.697c-0.273-0.285-0.41-0.578-0.41-0.879c0-0.227,0.077-0.414,0.233-0.557
		c0.155-0.145,0.342-0.216,0.561-0.216c0.273,0,0.513,0.121,0.718,0.362c0.101,0.123,0.204,0.247,0.31,0.373
		c0.107,0.125,0.227,0.232,0.356,0.32c0.131,0.09,0.286,0.155,0.469,0.199c0.183,0.043,0.392,0.064,0.629,0.064
		c0.483,0,0.857-0.067,1.125-0.201c0.266-0.135,0.453-0.323,0.561-0.564c0.106-0.241,0.169-0.5,0.188-0.775
		c0.018-0.276,0.032-0.72,0.041-1.33c-0.287,0.401-0.619,0.706-0.994,0.916c-0.377,0.21-0.824,0.314-1.344,0.314
		c-0.624,0-1.17-0.159-1.637-0.479c-0.468-0.319-0.826-0.766-1.077-1.34C34.255,8.024,34.13,7.36,34.13,6.608
		c0-0.56,0.076-1.066,0.228-1.517c0.153-0.451,0.371-0.832,0.653-1.142s0.608-0.543,0.978-0.701
		c0.369-0.156,0.774-0.235,1.217-0.235c0.528,0,0.986,0.102,1.374,0.304c0.388,0.203,0.747,0.521,1.08,0.954V4.018
		c0-0.323,0.08-0.574,0.239-0.752c0.159-0.178,0.364-0.267,0.615-0.267c0.36,0,0.6,0.117,0.718,0.352
		C41.351,3.586,41.411,3.924,41.411,4.366z M36.003,6.732c0,0.757,0.165,1.328,0.496,1.716c0.33,0.388,0.757,0.581,1.281,0.581
		c0.31,0,0.603-0.083,0.879-0.249c0.275-0.167,0.5-0.418,0.673-0.752c0.173-0.336,0.26-0.742,0.26-1.221
		c0-0.761-0.167-1.354-0.503-1.777c-0.334-0.424-0.775-0.636-1.322-0.636c-0.533,0-0.961,0.203-1.281,0.608
		C36.164,5.407,36.003,5.984,36.003,6.732z"/>
	<path fill="#555559" d="M48.157,7.251h-3.651c0.005,0.424,0.09,0.798,0.257,1.121c0.166,0.323,0.387,0.567,0.662,0.731
		c0.277,0.164,0.58,0.246,0.914,0.246c0.223,0,0.426-0.026,0.611-0.078c0.184-0.053,0.363-0.135,0.537-0.246
		c0.172-0.112,0.332-0.231,0.479-0.359c0.145-0.128,0.334-0.301,0.566-0.52c0.096-0.082,0.232-0.123,0.41-0.123
		c0.191,0,0.348,0.053,0.465,0.157c0.119,0.104,0.178,0.253,0.178,0.444c0,0.169-0.066,0.365-0.197,0.592
		c-0.133,0.225-0.332,0.441-0.6,0.649c-0.266,0.208-0.602,0.38-1.004,0.517c-0.404,0.137-0.867,0.205-1.391,0.205
		c-1.199,0-2.131-0.342-2.796-1.025c-0.665-0.684-0.998-1.611-0.998-2.782c0-0.552,0.082-1.062,0.246-1.535
		c0.164-0.471,0.403-0.876,0.718-1.213c0.314-0.337,0.702-0.596,1.162-0.775c0.46-0.181,0.971-0.27,1.532-0.27
		c0.729,0,1.354,0.153,1.875,0.462c0.523,0.307,0.914,0.705,1.174,1.192s0.389,0.984,0.389,1.49c0,0.47-0.135,0.773-0.402,0.913
		C49.022,7.182,48.644,7.251,48.157,7.251z M44.506,6.191h3.383c-0.045-0.638-0.217-1.115-0.516-1.432
		c-0.299-0.317-0.691-0.476-1.18-0.476c-0.465,0-0.846,0.161-1.144,0.481C44.751,5.088,44.57,5.562,44.506,6.191z"/>
</g>
<g>
	<path fill="#F58025" d="M55.28,6.513h-1.859V9.35c0,0.405-0.096,0.713-0.287,0.923c-0.191,0.21-0.434,0.314-0.725,0.314
		c-0.307,0-0.553-0.103-0.738-0.311c-0.187-0.207-0.281-0.511-0.281-0.912V1.639c0-0.446,0.104-0.766,0.309-0.957
		c0.205-0.191,0.531-0.287,0.977-0.287h2.605c0.77,0,1.361,0.06,1.777,0.178c0.41,0.114,0.764,0.303,1.062,0.567
		c0.299,0.265,0.525,0.588,0.68,0.971c0.156,0.383,0.232,0.813,0.232,1.292c0,1.021-0.314,1.795-0.943,2.32
		C57.46,6.25,56.524,6.513,55.28,6.513z M54.788,1.919h-1.367v3.062h1.367c0.479,0,0.877-0.05,1.199-0.15
		c0.32-0.101,0.566-0.265,0.734-0.492c0.17-0.227,0.254-0.526,0.254-0.896c0-0.442-0.131-0.802-0.391-1.08
		C56.294,2.067,55.694,1.919,54.788,1.919z"/>
	<path fill="#F58025" d="M67.067,6.793c0,0.556-0.088,1.068-0.26,1.538c-0.174,0.47-0.424,0.873-0.752,1.21
		c-0.328,0.337-0.721,0.596-1.176,0.775c-0.457,0.181-0.969,0.271-1.539,0.271c-0.564,0-1.072-0.091-1.523-0.273
		c-0.451-0.183-0.842-0.443-1.174-0.782c-0.33-0.34-0.58-0.741-0.752-1.203c-0.17-0.463-0.256-0.975-0.256-1.535
		c0-0.565,0.088-1.082,0.26-1.552c0.174-0.47,0.422-0.87,0.746-1.203c0.322-0.333,0.715-0.589,1.176-0.768
		c0.459-0.181,0.969-0.27,1.523-0.27c0.566,0,1.078,0.091,1.539,0.273c0.459,0.183,0.854,0.442,1.182,0.779
		C66.39,4.389,66.64,4.79,66.81,5.255C66.981,5.72,67.067,6.233,67.067,6.793z M65.194,6.793c0-0.761-0.168-1.354-0.504-1.777
		c-0.334-0.424-0.783-0.636-1.35-0.636c-0.363,0-0.686,0.095-0.963,0.284c-0.279,0.188-0.492,0.468-0.642,0.837
		c-0.15,0.369-0.227,0.8-0.227,1.292c0,0.487,0.074,0.914,0.223,1.278c0.148,0.364,0.359,0.644,0.635,0.837
		c0.277,0.194,0.602,0.291,0.975,0.291c0.566,0,1.016-0.213,1.35-0.639C65.026,8.134,65.194,7.545,65.194,6.793z"/>
	<path fill="#F58025" d="M69.479,2.131c-0.26,0-0.48-0.08-0.666-0.239c-0.184-0.159-0.277-0.385-0.277-0.677
		c0-0.265,0.096-0.482,0.285-0.652c0.188-0.172,0.408-0.257,0.658-0.257c0.242,0,0.457,0.077,0.643,0.232
		c0.188,0.155,0.281,0.381,0.281,0.677c0,0.287-0.092,0.512-0.273,0.674C69.946,2.05,69.731,2.131,69.479,2.131z M70.403,4.059
		v5.394c0,0.374-0.09,0.656-0.268,0.848c-0.178,0.191-0.402,0.287-0.676,0.287c-0.273,0-0.496-0.098-0.666-0.294
		c-0.172-0.196-0.258-0.477-0.258-0.841v-5.34c0-0.369,0.086-0.647,0.258-0.834c0.17-0.187,0.393-0.28,0.666-0.28
		s0.498,0.094,0.676,0.28C70.313,3.466,70.403,3.726,70.403,4.059z"/>
	<path fill="#F58025" d="M74.026,4.031v0.226c0.328-0.433,0.685-0.751,1.076-0.954c0.389-0.202,0.838-0.304,1.344-0.304
		c0.492,0,0.932,0.107,1.318,0.321c0.389,0.214,0.678,0.518,0.869,0.909c0.123,0.228,0.203,0.474,0.238,0.738
		c0.037,0.265,0.055,0.602,0.055,1.012v3.473c0,0.374-0.086,0.656-0.256,0.848c-0.172,0.191-0.393,0.287-0.666,0.287
		c-0.279,0-0.504-0.098-0.678-0.294c-0.172-0.196-0.26-0.477-0.26-0.841v-3.11c0-0.615-0.086-1.086-0.256-1.412
		c-0.17-0.326-0.51-0.489-1.02-0.489c-0.334,0-0.637,0.1-0.91,0.297c-0.273,0.199-0.473,0.471-0.602,0.817
		c-0.09,0.278-0.137,0.798-0.137,1.559v2.338c0,0.378-0.088,0.662-0.264,0.851c-0.174,0.189-0.4,0.284-0.68,0.284
		c-0.267,0-0.49-0.098-0.662-0.294c-0.174-0.196-0.26-0.477-0.26-0.841V4.059c0-0.355,0.076-0.621,0.232-0.797
		c0.154-0.175,0.367-0.263,0.635-0.263c0.164,0,0.312,0.039,0.445,0.116c0.131,0.077,0.238,0.193,0.316,0.349
		C73.985,3.619,74.026,3.808,74.026,4.031z"/>
	<path fill="#F58025" d="M80.89,3.163h0.205V2.042c0-0.301,0.008-0.536,0.024-0.708c0.016-0.17,0.06-0.317,0.133-0.44
		c0.074-0.128,0.178-0.231,0.314-0.312c0.137-0.079,0.289-0.119,0.459-0.119c0.236,0,0.451,0.089,0.643,0.267
		c0.127,0.118,0.209,0.263,0.242,0.435c0.035,0.17,0.051,0.413,0.051,0.727v1.271h0.684c0.266,0,0.467,0.062,0.605,0.188
		c0.139,0.125,0.209,0.285,0.209,0.481c0,0.251-0.1,0.426-0.297,0.526c-0.199,0.101-0.482,0.15-0.852,0.15h-0.35V7.94
		c0,0.292,0.012,0.516,0.031,0.674c0.021,0.156,0.076,0.284,0.164,0.383c0.09,0.098,0.234,0.146,0.434,0.146
		c0.109,0,0.258-0.02,0.445-0.059c0.185-0.038,0.332-0.058,0.438-0.058c0.15,0,0.285,0.06,0.406,0.181
		c0.121,0.121,0.182,0.271,0.182,0.448c0,0.301-0.164,0.531-0.492,0.69c-0.328,0.159-0.801,0.239-1.416,0.239
		c-0.582,0-1.025-0.098-1.326-0.294s-0.498-0.467-0.59-0.814c-0.094-0.347-0.141-0.809-0.141-1.388V4.51h-0.246
		c-0.27,0-0.475-0.063-0.615-0.191c-0.143-0.128-0.213-0.289-0.213-0.485s0.074-0.356,0.223-0.481
		C80.392,3.226,80.606,3.163,80.89,3.163z"/>
</g>
<g>
	<path fill="#F58025" d="M86.209,3.402h-0.36v1.184c0,0.068-0.015,0.119-0.045,0.152c-0.031,0.033-0.07,0.049-0.118,0.049
		c-0.049,0-0.089-0.017-0.12-0.05c-0.03-0.033-0.046-0.083-0.046-0.151V3.402h-0.36c-0.056,0-0.098-0.013-0.125-0.038
		s-0.042-0.058-0.042-0.098c0-0.042,0.015-0.076,0.043-0.1c0.029-0.024,0.07-0.037,0.124-0.037h1.05c0.058,0,0.1,0.012,0.127,0.038
		c0.028,0.025,0.042,0.058,0.042,0.099s-0.014,0.073-0.042,0.098C86.308,3.39,86.266,3.402,86.209,3.402z"/>
	<path fill="#F58025" d="M87.04,4.514l-0.262-1.039V4.6c0,0.062-0.014,0.109-0.041,0.14c-0.028,0.031-0.065,0.047-0.111,0.047
		c-0.044,0-0.081-0.016-0.108-0.046C86.49,4.71,86.475,4.663,86.475,4.6V3.311c0-0.071,0.019-0.119,0.056-0.144
		s0.087-0.037,0.15-0.037h0.102c0.062,0,0.107,0.005,0.134,0.017c0.027,0.011,0.048,0.031,0.062,0.06s0.028,0.076,0.046,0.141
		l0.236,0.893l0.237-0.893c0.017-0.065,0.032-0.112,0.046-0.141c0.013-0.029,0.033-0.049,0.062-0.06
		c0.027-0.011,0.072-0.017,0.134-0.017h0.103c0.062,0,0.112,0.012,0.149,0.037c0.037,0.025,0.056,0.073,0.056,0.144V4.6
		c0,0.062-0.014,0.109-0.041,0.14c-0.028,0.031-0.065,0.047-0.112,0.047c-0.044,0-0.079-0.016-0.107-0.047s-0.042-0.078-0.042-0.14
		V3.476l-0.262,1.039c-0.018,0.067-0.031,0.117-0.042,0.148c-0.011,0.031-0.03,0.06-0.06,0.086c-0.028,0.026-0.068,0.039-0.12,0.039
		c-0.038,0-0.071-0.008-0.098-0.025c-0.026-0.017-0.047-0.038-0.062-0.064s-0.026-0.055-0.034-0.087
		C87.058,4.581,87.049,4.548,87.04,4.514z"/>
</g>
</svg>
